***************************************************************

[IMG]http://www.torrentforce.org/imghost/3/greyshadow_tfbanner.png[/IMG]

***************************************************************

[IMG]http://www.torrentforce.org/imghost/4/greyshadow_conan.jpg[/IMG]

***************************************************************

FILM TITLE: Conan the Barbarian (2011)

***************************************************************

Genre: Action | Adventure | Fantasy    

Rated R for strong bloody violence, some sexuality and nudity

Release: 24 August 2011 (UK) 

Director: Marcus Nispel 

Writer: Thomas Dean Donnelly, Joshua Oppenheimer

Stars: Jason Momoa, Ron Perlman and Rose McGowan

Country: USA

Language: English

Plot:
The tale of Conan the Cimmerian and his adventures across the 
continent of Hyboria on a quest to avenge the murder of his father 
and the slaughter of his village.

IMDB Rating: 5.2/10 from 15,828 users   Metascore: 36/100
 
http://www.imdb.com/title/tt0816462/ 

****************************************************************

[IMG]http://www.torrentforce.org/imghost/4/greyshadow_conanx2641.png[/IMG]
[IMG]http://www.torrentforce.org/imghost/4/greyshadow_conanx2642.png[/IMG]
[IMG]http://www.torrentforce.org/imghost/4/greyshadow_conanx2643.png[/IMG]
[IMG]http://www.torrentforce.org/imghost/4/greyshadow_conanx2644.png[/IMG]
[IMG]http://www.torrentforce.org/imghost/4/greyshadow_conanx264ps3.png[/IMG]
[IMG]http://www.torrentforce.org/imghost/4/greyshadow_conanx264ps3.png[/IMG]

****************************************************************

[IMG]http://www.torrentforce.org/imghost/2/greyshadow_mediainfo.png[/IMG]
General
Complete name                    : Conan The Barbarian 2011 720p BDRip x264 ac3 (mp4) [TFRG].mp4
Format                           : MPEG-4
Format profile                   : Base Media
Codec ID                         : isom
File size                        : 3.42 GiB
Duration                         : 1h 52mn
Overall bit rate                 : 4343 Kbps
Encoded date                     : UTC 2011-11-14 22:40:23
Tagged date                      : UTC 2011-11-14 22:40:23

Video
ID                               : 1
Format                           : AVC
Format/Info                      : Advanced Video Codec
Format profile                   : High@L4.1
Format settings, CABAC           : Yes
Format settings, ReFrames        : 12 frames
Codec ID                         : avc1
Codec ID/Info                    : Advanced Video Coding
Duration                         : 1h 52mn
Bit rate                         : 3 700 Kbps
Maximum bit rate                 : 23.0 Mbps
Width                            : 1280 pixels
Height                           : 528 pixels
Display aspect ratio             : 2.40:1
Frame rate mode                  : Constant
Frame rate                       : 23.976 fps
Color space                      : YUV
Chroma subsampling               : 4:2:0
Bit depth                        : 8 bits
Scan type                        : Progressive
Bits/(Pixel*Frame)               : 0.228
Stream size                      : 2.91 GiB (85%)
Title                            : Conan AVC MPEG4 Video
Writing library                  : x264 core 119 r2106 07efeb4
Encoded date                     : UTC 2011-11-14 01:17:14
Tagged date                      : UTC 2011-11-14 22:41:54
Color primaries                  : BT.709-5, BT.1361, IEC 61966-2-4, SMPTE RP177
Transfer characteristics         : BT.709-5, BT.1361
Matrix coefficients              : BT.709-5, BT.1361, IEC 61966-2-4 709, SMPTE RP177

Audio
ID                               : 2
Format                           : AC-3
Format/Info                      : Audio Coding 3
Mode extension                   : CM (complete main)
Codec ID                         : ac-3
Duration                         : 1h 52mn
Bit rate mode                    : Constant
Bit rate                         : 640 Kbps
Channel(s)                       : 6 channels
Channel positions                : Front: L C R, Side: L R, LFE
Sampling rate                    : 48.0 KHz
Bit depth                        : 16 bits
Compression mode                 : Lossy
Stream size                      : 516 MiB (15%)
Title                            : Conan AC3 5.1 Audio
Language                         : English
Encoded date                     : UTC 2011-11-14 22:41:25
Tagged date                      : UTC 2011-11-14 22:41:54

****************************************************************

Video Source: Conan The Barbarian 2011 BluRay REMUX 1080p AVC DTS-HD MA7.1-CHD (21.8GB)

Thanks: (chdbits.org)

****************************************************************

I provide a small sample, so please download this to check your 
compatibility first if you are unsure.

****************************************************************

7th October 2011

I am re-introducing my warning to all downloaders, please please
please use a proxy or vpn service, it is the only secure way to
keep your own ip address from being seen during downloading or
uploading/seeding, this WILL stop isp letters, as for advice to 
which one then thats simple, vpntunnel.se server based in Sweden 
is the right one to use, I have cancelled my vpn and transfered 
to a Swedish one already !!! enough said. 

****************************************************************

A big thanks to all the sites out there who care and share and
who make it possible for you to download this torrent for free.

Greetz to Westy, Ripwyn, mustang, noir, Blackjesus, MXMG, The Stig 
and all the other outstanding members of our community of file 
sharers and a special mention to our friends at 1337x.

****************************************************************